<?xml version="1.0" encoding="UTF-8"?>
<svg xmlns="http://www.w3.org/2000/svg" viewBox="0 0 794 1123" width="794" height="794" data-ink-range="artboard"><rect width="100%" height="100%" fill="#ffffff"/><g id="layer-base-16101" data-ink-layer="layer-base-16101" opacity="1"><path id="fleurify-outline-8" data-ink-id="fleurify-outline-8" data-ink-type="path" data-ink-topology="outer" transform="matrix(1 0 0 1 0 0)" opacity="1" fill="#db7892" fill-rule="evenodd" stroke="#653243" stroke-width="3" stroke-linecap="round" stroke-linejoin="round" stroke-miterlimit="4" d="M397 170 C317.9 201.5 545 295.5 510 215 C430.9 183.5 525 410.5 560 330 C525 249.5 430.9 477.9 510 445 C545 364.5 317.9 459.1 397 492 C476.1 459.1 249 364.5 284 445 C363.1 477.9 269 249.5 234 330 C269 410.5 363.1 183.5 284 215 C249 295.5 476.1 201.5 397 170 Z"/></g></svg>
