<?xml version="1.0" encoding="UTF-8"?>
<svg xmlns="http://www.w3.org/2000/svg" viewBox="0 0 794 1123" width="794" height="1123" data-ink-range="artboard"><rect width="100%" height="100%" fill="#fffaf7"/><g id="layer:case-01-dense-multilayer-peony:main" data-ink-layer="layer:case-01-dense-multilayer-peony:main" opacity="1"><g id="b02:c1:manual-correction" data-ink-id="b02:c1:manual-correction" data-ink-type="group" transform="matrix(0.754814 0.3204 -0.359473 0.846864 397 500)"><path id="b02-c1-manual-correction:shape" data-ink-id="b02-c1-manual-correction:shape" data-ink-type="path" data-ink-topology="outer" transform="matrix(1 0 0 1 0 0)" opacity="1" fill="#d47b94" fill-rule="evenodd" stroke="#6a3448" stroke-width="1" stroke-linecap="round" stroke-linejoin="round" stroke-miterlimit="4" d="M0 0 C-19 -10.24 -25 -40.959999999999994 -25 -61.44 C-26 -89.6 31 -110.08 31 -128 C31 -110.08 26 -89.6 25 -61.44 C25 -40.959999999999994 19 -10.24 0 0 Z"/></g><g id="b02:c1:ring:outer:expanded" data-ink-id="b02:c1:ring:outer:expanded" data-ink-type="group" transform="matrix(1 0 0 1 0 0)"><g id="repeat:b02-c1-ring-outer:0:0:petals.outer:1.6.2:b02-c1-source-outer" data-ink-id="repeat:b02-c1-ring-outer:0:0:petals.outer:1.6.2:b02-c1-source-outer" data-ink-type="group" transform="matrix(0.948866 -0.046407 0.046407 0.948866 397.625 504)"><path id="repeat-b02-c1-ring-outer-0-0-petals.outer-1.6.2-b02-c1-source-outer:b02-c1-source-outer-shape:source.children.0" data-ink-id="repeat-b02-c1-ring-outer-0-0-petals.outer-1.6.2-b02-c1-source-outer:b02-c1-source-outer-shape:source.children.0" data-ink-type="path" data-ink-topology="outer" transform="matrix(1 0 0 1 0 0)" opacity="1" fill="#b95a78" fill-rule="evenodd" stroke="#663148" stroke-width="1.2" stroke-linecap="round" stroke-linejoin="round" stroke-miterlimit="4" d="M0 0 C-34.2 -14.08 -45 -56.31999999999999 -45 -84.47999999999999 C-46.8 -123.19999999999999 -10 -151.36 8 -176 C26 -151.36 46.8 -123.19999999999999 45 -84.47999999999999 C45 -56.31999999999999 34.2 -14.08 0 0 Z"/></g><g id="repeat:b02-c1-ring-outer:0:3:petals.outer:1.6.2:b02-c1-source-outer" data-ink-id="repeat:b02-c1-ring-outer:0:3:petals.outer:1.6.2:b02-c1-source-outer" data-ink-type="group" transform="matrix(0.496948 0.934094 -0.913619 0.506278 392.625 500)"><path id="repeat-b02-c1-ring-outer-0-3-petals.outer-1.6.2-b02-c1-source-outer:b02-c1-source-outer-shape:source.children.0" data-ink-id="repeat-b02-c1-ring-outer-0-3-petals.outer-1.6.2-b02-c1-source-outer:b02-c1-source-outer-shape:source.children.0" data-ink-type="path" data-ink-topology="outer" transform="matrix(1 0 0 1 0 0)" opacity="1" fill="#b95a78" fill-rule="evenodd" stroke="#663148" stroke-width="1.2" stroke-linecap="round" stroke-linejoin="round" stroke-miterlimit="4" d="M0 0 C-34.2 -14.08 -45 -56.31999999999999 -45 -84.47999999999999 C-46.8 -123.19999999999999 -10 -151.36 8 -176 C26 -151.36 46.8 -123.19999999999999 45 -84.47999999999999 C45 -56.31999999999999 34.2 -14.08 0 0 Z"/></g><g id="repeat:b02-c1-ring-outer:0:4:petals.outer:1.6.2:b02-c1-source-outer" data-ink-id="repeat:b02-c1-ring-outer:0:4:petals.outer:1.6.2:b02-c1-source-outer" data-ink-type="group" transform="matrix(0.089953 1.096171 -1.066218 0.091628 394.5 501.5)"><path id="repeat-b02-c1-ring-outer-0-4-petals.outer-1.6.2-b02-c1-source-outer:b02-c1-source-outer-shape:source.children.0" data-ink-id="repeat-b02-c1-ring-outer-0-4-petals.outer-1.6.2-b02-c1-source-outer:b02-c1-source-outer-shape:source.children.0" data-ink-type="path" data-ink-topology="outer" transform="matrix(1 0 0 1 0 0)" opacity="1" fill="#b95a78" fill-rule="evenodd" stroke="#663148" stroke-width="1.2" stroke-linecap="round" stroke-linejoin="round" stroke-miterlimit="4" d="M0 0 C-34.2 -14.08 -45 -56.31999999999999 -45 -84.47999999999999 C-46.8 -123.19999999999999 -10 -151.36 8 -176 C26 -151.36 46.8 -123.19999999999999 45 -84.47999999999999 C45 -56.31999999999999 34.2 -14.08 0 0 Z"/></g><g id="repeat:b02-c1-ring-outer:0:5:petals.outer:1.6.2:b02-c1-source-outer" data-ink-id="repeat:b02-c1-ring-outer:0:5:petals.outer:1.6.2:b02-c1-source-outer" data-ink-type="group" transform="matrix(-0.30121 0.875118 -0.87987 -0.299657 396.375 503)"><path id="repeat-b02-c1-ring-outer-0-5-petals.outer-1.6.2-b02-c1-source-outer:b02-c1-source-outer-shape:source.children.0" data-ink-id="repeat-b02-c1-ring-outer-0-5-petals.outer-1.6.2-b02-c1-source-outer:b02-c1-source-outer-shape:source.children.0" data-ink-type="path" data-ink-topology="outer" transform="matrix(1 0 0 1 0 0)" opacity="1" fill="#b95a78" fill-rule="evenodd" stroke="#663148" stroke-width="1.2" stroke-linecap="round" stroke-linejoin="round" stroke-miterlimit="4" d="M0 0 C-34.2 -14.08 -45 -56.31999999999999 -45 -84.47999999999999 C-46.8 -123.19999999999999 -10 -151.36 8 -176 C26 -151.36 46.8 -123.19999999999999 45 -84.47999999999999 C45 -56.31999999999999 34.2 -14.08 0 0 Z"/></g><g id="repeat:b02-c1-ring-outer:0:6:petals.outer:1.6.2:b02-c1-source-outer" data-ink-id="repeat:b02-c1-ring-outer:0:6:petals.outer:1.6.2:b02-c1-source-outer" data-ink-type="group" transform="matrix(-0.649854 0.708539 -0.706607 -0.65144 398.25 496)"><path id="repeat-b02-c1-ring-outer-0-6-petals.outer-1.6.2-b02-c1-source-outer:b02-c1-source-outer-shape:source.children.0" data-ink-id="repeat-b02-c1-ring-outer-0-6-petals.outer-1.6.2-b02-c1-source-outer:b02-c1-source-outer-shape:source.children.0" data-ink-type="path" data-ink-topology="outer" transform="matrix(1 0 0 1 0 0)" opacity="1" fill="#b95a78" fill-rule="evenodd" stroke="#663148" stroke-width="1.2" stroke-linecap="round" stroke-linejoin="round" stroke-miterlimit="4" d="M0 0 C-34.2 -14.08 -45 -56.31999999999999 -45 -84.47999999999999 C-46.8 -123.19999999999999 -10 -151.36 8 -176 C26 -151.36 46.8 -123.19999999999999 45 -84.47999999999999 C45 -56.31999999999999 34.2 -14.08 0 0 Z"/></g><g id="repeat:b02-c1-ring-outer:0:7:petals.outer:1.6.2:b02-c1-source-outer" data-ink-id="repeat:b02-c1-ring-outer:0:7:petals.outer:1.6.2:b02-c1-source-outer" data-ink-type="group" transform="matrix(-0.906724 0.402385 -0.397491 -0.915445 400.125 497.5)"><path id="repeat-b02-c1-ring-outer-0-7-petals.outer-1.6.2-b02-c1-source-outer:b02-c1-source-outer-shape:source.children.0" data-ink-id="repeat-b02-c1-ring-outer-0-7-petals.outer-1.6.2-b02-c1-source-outer:b02-c1-source-outer-shape:source.children.0" data-ink-type="path" data-ink-topology="outer" transform="matrix(1 0 0 1 0 0)" opacity="1" fill="#b95a78" fill-rule="evenodd" stroke="#663148" stroke-width="1.2" stroke-linecap="round" stroke-linejoin="round" stroke-miterlimit="4" d="M0 0 C-34.2 -14.08 -45 -56.31999999999999 -45 -84.47999999999999 C-46.8 -123.19999999999999 -10 -151.36 8 -176 C26 -151.36 46.8 -123.19999999999999 45 -84.47999999999999 C45 -56.31999999999999 34.2 -14.08 0 0 Z"/></g><g id="repeat:b02-c1-ring-outer:0:8:petals.outer:1.6.2:b02-c1-source-outer" data-ink-id="repeat:b02-c1-ring-outer:0:8:petals.outer:1.6.2:b02-c1-source-outer" data-ink-type="group" transform="matrix(-1.012765 0.121991 -0.121625 -1.030261 402 499)"><path id="repeat-b02-c1-ring-outer-0-8-petals.outer-1.6.2-b02-c1-source-outer:b02-c1-source-outer-shape:source.children.0" data-ink-id="repeat-b02-c1-ring-outer-0-8-petals.outer-1.6.2-b02-c1-source-outer:b02-c1-source-outer-shape:source.children.0" data-ink-type="path" data-ink-topology="outer" transform="matrix(1 0 0 1 0 0)" opacity="1" fill="#b95a78" fill-rule="evenodd" stroke="#663148" stroke-width="1.2" stroke-linecap="round" stroke-linejoin="round" stroke-miterlimit="4" d="M0 0 C-34.2 -14.08 -45 -56.31999999999999 -45 -84.47999999999999 C-46.8 -123.19999999999999 -10 -151.36 8 -176 C26 -151.36 46.8 -123.19999999999999 45 -84.47999999999999 C45 -56.31999999999999 34.2 -14.08 0 0 Z"/></g><g id="repeat:b02-c1-ring-outer:0:9:petals.outer:1.6.2:b02-c1-source-outer" data-ink-id="repeat:b02-c1-ring-outer:0:9:petals.outer:1.6.2:b02-c1-source-outer" data-ink-type="group" transform="matrix(-1.004876 -0.313167 0.304575 -1.028353 393.25 500.5)"><path id="repeat-b02-c1-ring-outer-0-9-petals.outer-1.6.2-b02-c1-source-outer:b02-c1-source-outer-shape:source.children.0" data-ink-id="repeat-b02-c1-ring-outer-0-9-petals.outer-1.6.2-b02-c1-source-outer:b02-c1-source-outer-shape:source.children.0" data-ink-type="path" data-ink-topology="outer" transform="matrix(1 0 0 1 0 0)" opacity="1" fill="#b95a78" fill-rule="evenodd" stroke="#663148" stroke-width="1.2" stroke-linecap="round" stroke-linejoin="round" stroke-miterlimit="4" d="M0 0 C-34.2 -14.08 -45 -56.31999999999999 -45 -84.47999999999999 C-46.8 -123.19999999999999 -10 -151.36 8 -176 C26 -151.36 46.8 -123.19999999999999 45 -84.47999999999999 C45 -56.31999999999999 34.2 -14.08 0 0 Z"/></g><g id="repeat:b02-c1-ring-outer:0:10:petals.outer:1.6.2:b02-c1-source-outer" data-ink-id="repeat:b02-c1-ring-outer:0:10:petals.outer:1.6.2:b02-c1-source-outer" data-ink-type="group" transform="matrix(-0.819189 -0.584748 0.703785 -0.684169 395.125 502)"><path id="repeat-b02-c1-ring-outer-0-10-petals.outer-1.6.2-b02-c1-source-outer:b02-c1-source-outer-shape:source.children.0" data-ink-id="repeat-b02-c1-ring-outer-0-10-petals.outer-1.6.2-b02-c1-source-outer:b02-c1-source-outer-shape:source.children.0" data-ink-type="path" data-ink-topology="outer" transform="matrix(1 0 0 1 0 0)" opacity="1" fill="#b95a78" fill-rule="evenodd" stroke="#663148" stroke-width="1.2" stroke-linecap="round" stroke-linejoin="round" stroke-miterlimit="4" d="M0 0 C-34.2 -14.08 -45 -56.31999999999999 -45 -84.47999999999999 C-46.8 -123.19999999999999 -10 -151.36 8 -176 C26 -151.36 46.8 -123.19999999999999 45 -84.47999999999999 C45 -56.31999999999999 34.2 -14.08 0 0 Z"/></g><g id="repeat:b02-c1-ring-outer:0:11:petals.outer:1.6.2:b02-c1-source-outer" data-ink-id="repeat:b02-c1-ring-outer:0:11:petals.outer:1.6.2:b02-c1-source-outer" data-ink-type="group" transform="matrix(-0.407671 -0.844775 0.846997 -0.406524 397 503.5)"><path id="repeat-b02-c1-ring-outer-0-11-petals.outer-1.6.2-b02-c1-source-outer:b02-c1-source-outer-shape:source.children.0" data-ink-id="repeat-b02-c1-ring-outer-0-11-petals.outer-1.6.2-b02-c1-source-outer:b02-c1-source-outer-shape:source.children.0" data-ink-type="path" data-ink-topology="outer" transform="matrix(1 0 0 1 0 0)" opacity="1" fill="#b95a78" fill-rule="evenodd" stroke="#663148" stroke-width="1.2" stroke-linecap="round" stroke-linejoin="round" stroke-miterlimit="4" d="M0 0 C-34.2 -14.08 -45 -56.31999999999999 -45 -84.47999999999999 C-46.8 -123.19999999999999 -10 -151.36 8 -176 C26 -151.36 46.8 -123.19999999999999 45 -84.47999999999999 C45 -56.31999999999999 34.2 -14.08 0 0 Z"/></g><g id="repeat:b02-c1-ring-outer:0:12:petals.outer:1.6.2:b02-c1-source-outer" data-ink-id="repeat:b02-c1-ring-outer:0:12:petals.outer:1.6.2:b02-c1-source-outer" data-ink-type="group" transform="matrix(-0.033678 -0.974394 0.969421 -0.034201 398.875 496.5)"><path id="repeat-b02-c1-ring-outer-0-12-petals.outer-1.6.2-b02-c1-source-outer:b02-c1-source-outer-shape:source.children.0" data-ink-id="repeat-b02-c1-ring-outer-0-12-petals.outer-1.6.2-b02-c1-source-outer:b02-c1-source-outer-shape:source.children.0" data-ink-type="path" data-ink-topology="outer" transform="matrix(1 0 0 1 0 0)" opacity="1" fill="#b95a78" fill-rule="evenodd" stroke="#663148" stroke-width="1.2" stroke-linecap="round" stroke-linejoin="round" stroke-miterlimit="4" d="M0 0 C-34.2 -14.08 -45 -56.31999999999999 -45 -84.47999999999999 C-46.8 -123.19999999999999 -10 -151.36 8 -176 C26 -151.36 46.8 -123.19999999999999 45 -84.47999999999999 C45 -56.31999999999999 34.2 -14.08 0 0 Z"/></g><g id="repeat:b02-c1-ring-outer:0:13:petals.outer:1.6.2:b02-c1-source-outer" data-ink-id="repeat:b02-c1-ring-outer:0:13:petals.outer:1.6.2:b02-c1-source-outer" data-ink-type="group" transform="matrix(0.370408 -0.940968 0.928911 0.373707 400.75 498)"><path id="repeat-b02-c1-ring-outer-0-13-petals.outer-1.6.2-b02-c1-source-outer:b02-c1-source-outer-shape:source.children.0" data-ink-id="repeat-b02-c1-ring-outer-0-13-petals.outer-1.6.2-b02-c1-source-outer:b02-c1-source-outer-shape:source.children.0" data-ink-type="path" data-ink-topology="outer" transform="matrix(1 0 0 1 0 0)" opacity="1" fill="#b95a78" fill-rule="evenodd" stroke="#663148" stroke-width="1.2" stroke-linecap="round" stroke-linejoin="round" stroke-miterlimit="4" d="M0 0 C-34.2 -14.08 -45 -56.31999999999999 -45 -84.47999999999999 C-46.8 -123.19999999999999 -10 -151.36 8 -176 C26 -151.36 46.8 -123.19999999999999 45 -84.47999999999999 C45 -56.31999999999999 34.2 -14.08 0 0 Z"/></g><g id="repeat:b02-c1-ring-outer:0:14:petals.outer:1.6.2:b02-c1-source-outer" data-ink-id="repeat:b02-c1-ring-outer:0:14:petals.outer:1.6.2:b02-c1-source-outer" data-ink-type="group" transform="matrix(0.641964 -0.820047 0.805516 0.655706 392 499.5)"><path id="repeat-b02-c1-ring-outer-0-14-petals.outer-1.6.2-b02-c1-source-outer:b02-c1-source-outer-shape:source.children.0" data-ink-id="repeat-b02-c1-ring-outer-0-14-petals.outer-1.6.2-b02-c1-source-outer:b02-c1-source-outer-shape:source.children.0" data-ink-type="path" data-ink-topology="outer" transform="matrix(1 0 0 1 0 0)" opacity="1" fill="#b95a78" fill-rule="evenodd" stroke="#663148" stroke-width="1.2" stroke-linecap="round" stroke-linejoin="round" stroke-miterlimit="4" d="M0 0 C-34.2 -14.08 -45 -56.31999999999999 -45 -84.47999999999999 C-46.8 -123.19999999999999 -10 -151.36 8 -176 C26 -151.36 46.8 -123.19999999999999 45 -84.47999999999999 C45 -56.31999999999999 34.2 -14.08 0 0 Z"/></g><g id="repeat:b02-c1-ring-outer:0:15:petals.outer:1.6.2:b02-c1-source-outer" data-ink-id="repeat:b02-c1-ring-outer:0:15:petals.outer:1.6.2:b02-c1-source-outer" data-ink-type="group" transform="matrix(0.93826 -0.505 0.493248 0.963123 393.875 501)"><path id="repeat-b02-c1-ring-outer-0-15-petals.outer-1.6.2-b02-c1-source-outer:b02-c1-source-outer-shape:source.children.0" data-ink-id="repeat-b02-c1-ring-outer-0-15-petals.outer-1.6.2-b02-c1-source-outer:b02-c1-source-outer-shape:source.children.0" data-ink-type="path" data-ink-topology="outer" transform="matrix(1 0 0 1 0 0)" opacity="1" fill="#b95a78" fill-rule="evenodd" stroke="#663148" stroke-width="1.2" stroke-linecap="round" stroke-linejoin="round" stroke-miterlimit="4" d="M0 0 C-34.2 -14.08 -45 -56.31999999999999 -45 -84.47999999999999 C-46.8 -123.19999999999999 -10 -151.36 8 -176 C26 -151.36 46.8 -123.19999999999999 45 -84.47999999999999 C45 -56.31999999999999 34.2 -14.08 0 0 Z"/></g></g><g id="b02:c1:ring:middle:expanded" data-ink-id="b02:c1:ring:middle:expanded" data-ink-type="group" transform="matrix(1 0 0 1 0 0)"><g id="repeat:b02-c1-ring-middle:1:0:petals.middle:1.6.2:b02-c1-source-middle" data-ink-id="repeat:b02-c1-ring-middle:1:0:petals.middle:1.6.2:b02-c1-source-middle" data-ink-type="group" transform="matrix(0.94121 0.12893 -0.12893 0.94121 397.625 504)"><path id="repeat-b02-c1-ring-middle-1-0-petals.middle-1.6.2-b02-c1-source-middle:b02-c1-source-middle-shape:source.children.0" data-ink-id="repeat-b02-c1-ring-middle-1-0-petals.middle-1.6.2-b02-c1-source-middle:b02-c1-source-middle-shape:source.children.0" data-ink-type="path" data-ink-topology="outer" transform="matrix(1 0 0 1 0 0)" opacity="1" fill="#cf718c" fill-rule="evenodd" stroke="#6d344a" stroke-width="1.1" stroke-linecap="round" stroke-linejoin="round" stroke-miterlimit="4" d="M0 0 C-22.8 -10.56 -30 -42.239999999999995 -30 -63.36 C-31.2 -92.4 -16 -113.52 -4 -132 C8 -113.52 31.2 -92.4 30 -63.36 C30 -42.239999999999995 22.8 -10.56 0 0 Z"/></g><g id="repeat:b02-c1-ring-middle:1:1:petals.middle:1.6.2:b02-c1-source-middle" data-ink-id="repeat:b02-c1-ring-middle:1:1:petals.middle:1.6.2:b02-c1-source-middle" data-ink-type="group" transform="matrix(0.78567 0.589833 -0.585782 0.791982 399.5 497)"><path id="repeat-b02-c1-ring-middle-1-1-petals.middle-1.6.2-b02-c1-source-middle:b02-c1-source-middle-shape:source.children.0" data-ink-id="repeat-b02-c1-ring-middle-1-1-petals.middle-1.6.2-b02-c1-source-middle:b02-c1-source-middle-shape:source.children.0" data-ink-type="path" data-ink-topology="outer" transform="matrix(1 0 0 1 0 0)" opacity="1" fill="#cf718c" fill-rule="evenodd" stroke="#6d344a" stroke-width="1.1" stroke-linecap="round" stroke-linejoin="round" stroke-miterlimit="4" d="M0 0 C-22.8 -10.56 -30 -42.239999999999995 -30 -63.36 C-31.2 -92.4 -16 -113.52 -4 -132 C8 -113.52 31.2 -92.4 30 -63.36 C30 -42.239999999999995 22.8 -10.56 0 0 Z"/></g><g id="repeat:b02-c1-ring-middle:1:2:petals.middle:1.6.2:b02-c1-source-middle" data-ink-id="repeat:b02-c1-ring-middle:1:2:petals.middle:1.6.2:b02-c1-source-middle" data-ink-type="group" transform="matrix(0.41674 0.932949 -0.920067 0.424425 401.375 498.5)"><path id="repeat-b02-c1-ring-middle-1-2-petals.middle-1.6.2-b02-c1-source-middle:b02-c1-source-middle-shape:source.children.0" data-ink-id="repeat-b02-c1-ring-middle-1-2-petals.middle-1.6.2-b02-c1-source-middle:b02-c1-source-middle-shape:source.children.0" data-ink-type="path" data-ink-topology="outer" transform="matrix(1 0 0 1 0 0)" opacity="1" fill="#cf718c" fill-rule="evenodd" stroke="#6d344a" stroke-width="1.1" stroke-linecap="round" stroke-linejoin="round" stroke-miterlimit="4" d="M0 0 C-22.8 -10.56 -30 -42.239999999999995 -30 -63.36 C-31.2 -92.4 -16 -113.52 -4 -132 C8 -113.52 31.2 -92.4 30 -63.36 C30 -42.239999999999995 22.8 -10.56 0 0 Z"/></g><g id="repeat:b02-c1-ring-middle:1:3:petals.middle:1.6.2:b02-c1-source-middle" data-ink-id="repeat:b02-c1-ring-middle:1:3:petals.middle:1.6.2:b02-c1-source-middle" data-ink-type="group" transform="matrix(0.043098 1.061626 -1.039147 0.042125 392.625 500)"><path id="repeat-b02-c1-ring-middle-1-3-petals.middle-1.6.2-b02-c1-source-middle:b02-c1-source-middle-shape:source.children.0" data-ink-id="repeat-b02-c1-ring-middle-1-3-petals.middle-1.6.2-b02-c1-source-middle:b02-c1-source-middle-shape:source.children.0" data-ink-type="path" data-ink-topology="outer" transform="matrix(1 0 0 1 0 0)" opacity="1" fill="#cf718c" fill-rule="evenodd" stroke="#6d344a" stroke-width="1.1" stroke-linecap="round" stroke-linejoin="round" stroke-miterlimit="4" d="M0 0 C-22.8 -10.56 -30 -42.239999999999995 -30 -63.36 C-31.2 -92.4 -16 -113.52 -4 -132 C8 -113.52 31.2 -92.4 30 -63.36 C30 -42.239999999999995 22.8 -10.56 0 0 Z"/></g><g id="repeat:b02-c1-ring-middle:1:4:petals.middle:1.6.2:b02-c1-source-middle" data-ink-id="repeat:b02-c1-ring-middle:1:4:petals.middle:1.6.2:b02-c1-source-middle" data-ink-type="group" transform="matrix(-0.478032 0.983541 -0.957295 -0.492563 394.5 501.5)"><path id="repeat-b02-c1-ring-middle-1-4-petals.middle-1.6.2-b02-c1-source-middle:b02-c1-source-middle-shape:source.children.0" data-ink-id="repeat-b02-c1-ring-middle-1-4-petals.middle-1.6.2-b02-c1-source-middle:b02-c1-source-middle-shape:source.children.0" data-ink-type="path" data-ink-topology="outer" transform="matrix(1 0 0 1 0 0)" opacity="1" fill="#cf718c" fill-rule="evenodd" stroke="#6d344a" stroke-width="1.1" stroke-linecap="round" stroke-linejoin="round" stroke-miterlimit="4" d="M0 0 C-22.8 -10.56 -30 -42.239999999999995 -30 -63.36 C-31.2 -92.4 -16 -113.52 -4 -132 C8 -113.52 31.2 -92.4 30 -63.36 C30 -42.239999999999995 22.8 -10.56 0 0 Z"/></g><g id="repeat:b02-c1-ring-middle:1:5:petals.middle:1.6.2:b02-c1-source-middle" data-ink-id="repeat:b02-c1-ring-middle:1:5:petals.middle:1.6.2:b02-c1-source-middle" data-ink-type="group" transform="matrix(-0.766084 0.524437 -0.527272 -0.761965 396.375 503)"><path id="repeat-b02-c1-ring-middle-1-5-petals.middle-1.6.2-b02-c1-source-middle:b02-c1-source-middle-shape:source.children.0" data-ink-id="repeat-b02-c1-ring-middle-1-5-petals.middle-1.6.2-b02-c1-source-middle:b02-c1-source-middle-shape:source.children.0" data-ink-type="path" data-ink-topology="outer" transform="matrix(1 0 0 1 0 0)" opacity="1" fill="#cf718c" fill-rule="evenodd" stroke="#6d344a" stroke-width="1.1" stroke-linecap="round" stroke-linejoin="round" stroke-miterlimit="4" d="M0 0 C-22.8 -10.56 -30 -42.239999999999995 -30 -63.36 C-31.2 -92.4 -16 -113.52 -4 -132 C8 -113.52 31.2 -92.4 30 -63.36 C30 -42.239999999999995 22.8 -10.56 0 0 Z"/></g><g id="repeat:b02-c1-ring-middle:1:6:petals.middle:1.6.2:b02-c1-source-middle" data-ink-id="repeat:b02-c1-ring-middle:1:6:petals.middle:1.6.2:b02-c1-source-middle" data-ink-type="group" transform="matrix(-0.955349 0.094747 -0.094397 -0.957824 398.25 496)"><path id="repeat-b02-c1-ring-middle-1-6-petals.middle-1.6.2-b02-c1-source-middle:b02-c1-source-middle-shape:source.children.0" data-ink-id="repeat-b02-c1-ring-middle-1-6-petals.middle-1.6.2-b02-c1-source-middle:b02-c1-source-middle-shape:source.children.0" data-ink-type="path" data-ink-topology="outer" transform="matrix(1 0 0 1 0 0)" opacity="1" fill="#cf718c" fill-rule="evenodd" stroke="#6d344a" stroke-width="1.1" stroke-linecap="round" stroke-linejoin="round" stroke-miterlimit="4" d="M0 0 C-22.8 -10.56 -30 -42.239999999999995 -30 -63.36 C-31.2 -92.4 -16 -113.52 -4 -132 C8 -113.52 31.2 -92.4 30 -63.36 C30 -42.239999999999995 22.8 -10.56 0 0 Z"/></g><g id="repeat:b02-c1-ring-middle:1:7:petals.middle:1.6.2:b02-c1-source-middle" data-ink-id="repeat:b02-c1-ring-middle:1:7:petals.middle:1.6.2:b02-c1-source-middle" data-ink-type="group" transform="matrix(-0.909481 -0.394291 0.391127 -0.918967 400.125 497.5)"><path id="repeat-b02-c1-ring-middle-1-7-petals.middle-1.6.2-b02-c1-source-middle:b02-c1-source-middle-shape:source.children.0" data-ink-id="repeat-b02-c1-ring-middle-1-7-petals.middle-1.6.2-b02-c1-source-middle:b02-c1-source-middle-shape:source.children.0" data-ink-type="path" data-ink-topology="outer" transform="matrix(1 0 0 1 0 0)" opacity="1" fill="#cf718c" fill-rule="evenodd" stroke="#6d344a" stroke-width="1.1" stroke-linecap="round" stroke-linejoin="round" stroke-miterlimit="4" d="M0 0 C-22.8 -10.56 -30 -42.239999999999995 -30 -63.36 C-31.2 -92.4 -16 -113.52 -4 -132 C8 -113.52 31.2 -92.4 30 -63.36 C30 -42.239999999999995 22.8 -10.56 0 0 Z"/></g><g id="repeat:b02-c1-ring-middle:1:8:petals.middle:1.6.2:b02-c1-source-middle" data-ink-id="repeat:b02-c1-ring-middle:1:8:petals.middle:1.6.2:b02-c1-source-middle" data-ink-type="group" transform="matrix(-0.717708 -0.738591 0.72485 -0.728545 402 499)"><path id="repeat-b02-c1-ring-middle-1-8-petals.middle-1.6.2-b02-c1-source-middle:b02-c1-source-middle-shape:source.children.0" data-ink-id="repeat-b02-c1-ring-middle-1-8-petals.middle-1.6.2-b02-c1-source-middle:b02-c1-source-middle-shape:source.children.0" data-ink-type="path" data-ink-topology="outer" transform="matrix(1 0 0 1 0 0)" opacity="1" fill="#cf718c" fill-rule="evenodd" stroke="#6d344a" stroke-width="1.1" stroke-linecap="round" stroke-linejoin="round" stroke-miterlimit="4" d="M0 0 C-22.8 -10.56 -30 -42.239999999999995 -30 -63.36 C-31.2 -92.4 -16 -113.52 -4 -132 C8 -113.52 31.2 -92.4 30 -63.36 C30 -42.239999999999995 22.8 -10.56 0 0 Z"/></g><g id="repeat:b02-c1-ring-middle:1:9:petals.middle:1.6.2:b02-c1-source-middle" data-ink-id="repeat:b02-c1-ring-middle:1:9:petals.middle:1.6.2:b02-c1-source-middle" data-ink-type="group" transform="matrix(-0.286199 -1.034749 1.010275 -0.291298 393.25 500.5)"><path id="repeat-b02-c1-ring-middle-1-9-petals.middle-1.6.2-b02-c1-source-middle:b02-c1-source-middle-shape:source.children.0" data-ink-id="repeat-b02-c1-ring-middle-1-9-petals.middle-1.6.2-b02-c1-source-middle:b02-c1-source-middle-shape:source.children.0" data-ink-type="path" data-ink-topology="outer" transform="matrix(1 0 0 1 0 0)" opacity="1" fill="#cf718c" fill-rule="evenodd" stroke="#6d344a" stroke-width="1.1" stroke-linecap="round" stroke-linejoin="round" stroke-miterlimit="4" d="M0 0 C-22.8 -10.56 -30 -42.239999999999995 -30 -63.36 C-31.2 -92.4 -16 -113.52 -4 -132 C8 -113.52 31.2 -92.4 30 -63.36 C30 -42.239999999999995 22.8 -10.56 0 0 Z"/></g><g id="repeat:b02-c1-ring-middle:1:10:petals.middle:1.6.2:b02-c1-source-middle" data-ink-id="repeat:b02-c1-ring-middle:1:10:petals.middle:1.6.2:b02-c1-source-middle" data-ink-type="group" transform="matrix(0.247646 -0.877101 1.051191 0.2019 395.125 502)"><path id="repeat-b02-c1-ring-middle-1-10-petals.middle-1.6.2-b02-c1-source-middle:b02-c1-source-middle-shape:source.children.0" data-ink-id="repeat-b02-c1-ring-middle-1-10-petals.middle-1.6.2-b02-c1-source-middle:b02-c1-source-middle-shape:source.children.0" data-ink-type="path" data-ink-topology="outer" transform="matrix(1 0 0 1 0 0)" opacity="1" fill="#cf718c" fill-rule="evenodd" stroke="#6d344a" stroke-width="1.1" stroke-linecap="round" stroke-linejoin="round" stroke-miterlimit="4" d="M0 0 C-22.8 -10.56 -30 -42.239999999999995 -30 -63.36 C-31.2 -92.4 -16 -113.52 -4 -132 C8 -113.52 31.2 -92.4 30 -63.36 C30 -42.239999999999995 22.8 -10.56 0 0 Z"/></g><g id="repeat:b02-c1-ring-middle:1:11:petals.middle:1.6.2:b02-c1-source-middle" data-ink-id="repeat:b02-c1-ring-middle:1:11:petals.middle:1.6.2:b02-c1-source-middle" data-ink-type="group" transform="matrix(0.629157 -0.696518 0.698399 0.62751 397 503.5)"><path id="repeat-b02-c1-ring-middle-1-11-petals.middle-1.6.2-b02-c1-source-middle:b02-c1-source-middle-shape:source.children.0" data-ink-id="repeat-b02-c1-ring-middle-1-11-petals.middle-1.6.2-b02-c1-source-middle:b02-c1-source-middle-shape:source.children.0" data-ink-type="path" data-ink-topology="outer" transform="matrix(1 0 0 1 0 0)" opacity="1" fill="#cf718c" fill-rule="evenodd" stroke="#6d344a" stroke-width="1.1" stroke-linecap="round" stroke-linejoin="round" stroke-miterlimit="4" d="M0 0 C-22.8 -10.56 -30 -42.239999999999995 -30 -63.36 C-31.2 -92.4 -16 -113.52 -4 -132 C8 -113.52 31.2 -92.4 30 -63.36 C30 -42.239999999999995 22.8 -10.56 0 0 Z"/></g><g id="repeat:b02-c1-ring-middle:1:12:petals.middle:1.6.2:b02-c1-source-middle" data-ink-id="repeat:b02-c1-ring-middle:1:12:petals.middle:1.6.2:b02-c1-source-middle" data-ink-type="group" transform="matrix(0.916692 -0.319044 0.317148 0.921319 398.875 496.5)"><path id="repeat-b02-c1-ring-middle-1-12-petals.middle-1.6.2-b02-c1-source-middle:b02-c1-source-middle-shape:source.children.0" data-ink-id="repeat-b02-c1-ring-middle-1-12-petals.middle-1.6.2-b02-c1-source-middle:b02-c1-source-middle-shape:source.children.0" data-ink-type="path" data-ink-topology="outer" transform="matrix(1 0 0 1 0 0)" opacity="1" fill="#cf718c" fill-rule="evenodd" stroke="#6d344a" stroke-width="1.1" stroke-linecap="round" stroke-linejoin="round" stroke-miterlimit="4" d="M0 0 C-22.8 -10.56 -30 -42.239999999999995 -30 -63.36 C-31.2 -92.4 -16 -113.52 -4 -132 C8 -113.52 31.2 -92.4 30 -63.36 C30 -42.239999999999995 22.8 -10.56 0 0 Z"/></g></g><g id="b02:c1:cross-ring-occlusion" data-ink-id="b02:c1:cross-ring-occlusion" data-ink-type="group" transform="matrix(1 0 0 1 0 0)"><g id="repeat:b02-c1-ring-outer:0:1:petals.outer:1.6.2:b02-c1-source-outer" data-ink-id="repeat:b02-c1-ring-outer:0:1:petals.outer:1.6.2:b02-c1-source-outer" data-ink-type="group" transform="matrix(0.915421 0.351981 -0.349901 0.922627 399.5 497)"><path id="repeat-b02-c1-ring-outer-0-1-petals.outer-1.6.2-b02-c1-source-outer:b02-c1-source-outer-shape:source.children.0" data-ink-id="repeat-b02-c1-ring-outer-0-1-petals.outer-1.6.2-b02-c1-source-outer:b02-c1-source-outer-shape:source.children.0" data-ink-type="path" data-ink-topology="outer" transform="matrix(1 0 0 1 0 0)" opacity="1" fill="#b95a78" fill-rule="evenodd" stroke="#663148" stroke-width="1.2" stroke-linecap="round" stroke-linejoin="round" stroke-miterlimit="4" d="M0 0 C-34.2 -14.08 -45 -56.31999999999999 -45 -84.47999999999999 C-46.8 -123.19999999999999 -10 -151.36 8 -176 C26 -151.36 46.8 -123.19999999999999 45 -84.47999999999999 C45 -56.31999999999999 34.2 -14.08 0 0 Z"/></g><g id="repeat:b02-c1-ring-outer:0:2:petals.outer:1.6.2:b02-c1-source-outer" data-ink-id="repeat:b02-c1-ring-outer:0:2:petals.outer:1.6.2:b02-c1-source-outer" data-ink-type="group" transform="matrix(0.798606 0.628862 -0.618404 0.80936 401.375 498.5)"><path id="repeat-b02-c1-ring-outer-0-2-petals.outer-1.6.2-b02-c1-source-outer:b02-c1-source-outer-shape:source.children.0" data-ink-id="repeat-b02-c1-ring-outer-0-2-petals.outer-1.6.2-b02-c1-source-outer:b02-c1-source-outer-shape:source.children.0" data-ink-type="path" data-ink-topology="outer" transform="matrix(1 0 0 1 0 0)" opacity="1" fill="#b95a78" fill-rule="evenodd" stroke="#663148" stroke-width="1.2" stroke-linecap="round" stroke-linejoin="round" stroke-miterlimit="4" d="M0 0 C-34.2 -14.08 -45 -56.31999999999999 -45 -84.47999999999999 C-46.8 -123.19999999999999 -10 -151.36 8 -176 C26 -151.36 46.8 -123.19999999999999 45 -84.47999999999999 C45 -56.31999999999999 34.2 -14.08 0 0 Z"/></g></g><g id="b02:c1:ring:inner:expanded" data-ink-id="b02:c1:ring:inner:expanded" data-ink-type="group" transform="matrix(1 0 0 1 0 0)"><g id="repeat:b02-c1-ring-inner:2:0:petals.inner:1.6.2:b02-c1-source-inner" data-ink-id="repeat:b02-c1-ring-inner:2:0:petals.inner:1.6.2:b02-c1-source-inner" data-ink-type="group" transform="matrix(0.94963 -0.026526 0.026526 0.94963 397.625 504)"><path id="repeat-b02-c1-ring-inner-2-0-petals.inner-1.6.2-b02-c1-source-inner:b02-c1-source-inner-shape:source.children.0" data-ink-id="repeat-b02-c1-ring-inner-2-0-petals.inner-1.6.2-b02-c1-source-inner:b02-c1-source-inner-shape:source.children.0" data-ink-type="path" data-ink-topology="outer" transform="matrix(1 0 0 1 0 0)" opacity="1" fill="#e99aad" fill-rule="evenodd" stroke="#7a4255" stroke-width="1" stroke-linecap="round" stroke-linejoin="round" stroke-miterlimit="4" d="M0 0 C-15.2 -6.5600000000000005 -20 -26.24 -20 -39.36 C-20.8 -57.4 -15 -70.52 -8 -82 C-1 -70.52 20.8 -57.4 20 -39.36 C20 -26.24 15.2 -6.5600000000000005 0 0 Z"/></g><g id="repeat:b02-c1-ring-inner:2:1:petals.inner:1.6.2:b02-c1-source-inner" data-ink-id="repeat:b02-c1-ring-inner:2:1:petals.inner:1.6.2:b02-c1-source-inner" data-ink-type="group" transform="matrix(0.796722 0.574673 -0.570654 0.803054 399.5 497)"><path id="repeat-b02-c1-ring-inner-2-1-petals.inner-1.6.2-b02-c1-source-inner:b02-c1-source-inner-shape:source.children.0" data-ink-id="repeat-b02-c1-ring-inner-2-1-petals.inner-1.6.2-b02-c1-source-inner:b02-c1-source-inner-shape:source.children.0" data-ink-type="path" data-ink-topology="outer" transform="matrix(1 0 0 1 0 0)" opacity="1" fill="#e99aad" fill-rule="evenodd" stroke="#7a4255" stroke-width="1" stroke-linecap="round" stroke-linejoin="round" stroke-miterlimit="4" d="M0 0 C-15.2 -6.5600000000000005 -20 -26.24 -20 -39.36 C-20.8 -57.4 -15 -70.52 -8 -82 C-1 -70.52 20.8 -57.4 20 -39.36 C20 -26.24 15.2 -6.5600000000000005 0 0 Z"/></g><g id="repeat:b02-c1-ring-inner:2:2:petals.inner:1.6.2:b02-c1-source-inner" data-ink-id="repeat:b02-c1-ring-inner:2:2:petals.inner:1.6.2:b02-c1-source-inner" data-ink-type="group" transform="matrix(0.297977 0.97891 -0.965082 0.303789 401.375 498.5)"><path id="repeat-b02-c1-ring-inner-2-2-petals.inner-1.6.2-b02-c1-source-inner:b02-c1-source-inner-shape:source.children.0" data-ink-id="repeat-b02-c1-ring-inner-2-2-petals.inner-1.6.2-b02-c1-source-inner:b02-c1-source-inner-shape:source.children.0" data-ink-type="path" data-ink-topology="outer" transform="matrix(1 0 0 1 0 0)" opacity="1" fill="#e99aad" fill-rule="evenodd" stroke="#7a4255" stroke-width="1" stroke-linecap="round" stroke-linejoin="round" stroke-miterlimit="4" d="M0 0 C-15.2 -6.5600000000000005 -20 -26.24 -20 -39.36 C-20.8 -57.4 -15 -70.52 -8 -82 C-1 -70.52 20.8 -57.4 20 -39.36 C20 -26.24 15.2 -6.5600000000000005 0 0 Z"/></g><g id="repeat:b02-c1-ring-inner:2:3:petals.inner:1.6.2:b02-c1-source-inner" data-ink-id="repeat:b02-c1-ring-inner:2:3:petals.inner:1.6.2:b02-c1-source-inner" data-ink-type="group" transform="matrix(-0.236428 1.034125 -1.012825 -0.243679 392.625 500)"><path id="repeat-b02-c1-ring-inner-2-3-petals.inner-1.6.2-b02-c1-source-inner:b02-c1-source-inner-shape:source.children.0" data-ink-id="repeat-b02-c1-ring-inner-2-3-petals.inner-1.6.2-b02-c1-source-inner:b02-c1-source-inner-shape:source.children.0" data-ink-type="path" data-ink-topology="outer" transform="matrix(1 0 0 1 0 0)" opacity="1" fill="#e99aad" fill-rule="evenodd" stroke="#7a4255" stroke-width="1" stroke-linecap="round" stroke-linejoin="round" stroke-miterlimit="4" d="M0 0 C-15.2 -6.5600000000000005 -20 -26.24 -20 -39.36 C-20.8 -57.4 -15 -70.52 -8 -82 C-1 -70.52 20.8 -57.4 20 -39.36 C20 -26.24 15.2 -6.5600000000000005 0 0 Z"/></g><g id="repeat:b02-c1-ring-inner:2:4:petals.inner:1.6.2:b02-c1-source-inner" data-ink-id="repeat:b02-c1-ring-inner:2:4:petals.inner:1.6.2:b02-c1-source-inner" data-ink-type="group" transform="matrix(-0.823933 0.700506 -0.682704 -0.84808 394.5 501.5)"><path id="repeat-b02-c1-ring-inner-2-4-petals.inner-1.6.2-b02-c1-source-inner:b02-c1-source-inner-shape:source.children.0" data-ink-id="repeat-b02-c1-ring-inner-2-4-petals.inner-1.6.2-b02-c1-source-inner:b02-c1-source-inner-shape:source.children.0" data-ink-type="path" data-ink-topology="outer" transform="matrix(1 0 0 1 0 0)" opacity="1" fill="#e99aad" fill-rule="evenodd" stroke="#7a4255" stroke-width="1" stroke-linecap="round" stroke-linejoin="round" stroke-miterlimit="4" d="M0 0 C-15.2 -6.5600000000000005 -20 -26.24 -20 -39.36 C-20.8 -57.4 -15 -70.52 -8 -82 C-1 -70.52 20.8 -57.4 20 -39.36 C20 -26.24 15.2 -6.5600000000000005 0 0 Z"/></g><g id="repeat:b02-c1-ring-inner:2:5:petals.inner:1.6.2:b02-c1-source-inner" data-ink-id="repeat:b02-c1-ring-inner:2:5:petals.inner:1.6.2:b02-c1-source-inner" data-ink-type="group" transform="matrix(-0.929185 0.03877 -0.038909 -0.924187 396.375 503)"><path id="repeat-b02-c1-ring-inner-2-5-petals.inner-1.6.2-b02-c1-source-inner:b02-c1-source-inner-shape:source.children.0" data-ink-id="repeat-b02-c1-ring-inner-2-5-petals.inner-1.6.2-b02-c1-source-inner:b02-c1-source-inner-shape:source.children.0" data-ink-type="path" data-ink-topology="outer" transform="matrix(1 0 0 1 0 0)" opacity="1" fill="#e99aad" fill-rule="evenodd" stroke="#7a4255" stroke-width="1" stroke-linecap="round" stroke-linejoin="round" stroke-miterlimit="4" d="M0 0 C-15.2 -6.5600000000000005 -20 -26.24 -20 -39.36 C-20.8 -57.4 -15 -70.52 -8 -82 C-1 -70.52 20.8 -57.4 20 -39.36 C20 -26.24 15.2 -6.5600000000000005 0 0 Z"/></g><g id="repeat:b02-c1-ring-inner:2:6:petals.inner:1.6.2:b02-c1-source-inner" data-ink-id="repeat:b02-c1-ring-inner:2:6:petals.inner:1.6.2:b02-c1-source-inner" data-ink-type="group" transform="matrix(-0.788284 -0.549283 0.547914 -0.790376 398.25 496)"><path id="repeat-b02-c1-ring-inner-2-6-petals.inner-1.6.2-b02-c1-source-inner:b02-c1-source-inner-shape:source.children.0" data-ink-id="repeat-b02-c1-ring-inner-2-6-petals.inner-1.6.2-b02-c1-source-inner:b02-c1-source-inner-shape:source.children.0" data-ink-type="path" data-ink-topology="outer" transform="matrix(1 0 0 1 0 0)" opacity="1" fill="#e99aad" fill-rule="evenodd" stroke="#7a4255" stroke-width="1" stroke-linecap="round" stroke-linejoin="round" stroke-miterlimit="4" d="M0 0 C-15.2 -6.5600000000000005 -20 -26.24 -20 -39.36 C-20.8 -57.4 -15 -70.52 -8 -82 C-1 -70.52 20.8 -57.4 20 -39.36 C20 -26.24 15.2 -6.5600000000000005 0 0 Z"/></g><g id="repeat:b02-c1-ring-inner:2:7:petals.inner:1.6.2:b02-c1-source-inner" data-ink-id="repeat:b02-c1-ring-inner:2:7:petals.inner:1.6.2:b02-c1-source-inner" data-ink-type="group" transform="matrix(-0.305599 -0.950937 0.941665 -0.309345 400.125 497.5)"><path id="repeat-b02-c1-ring-inner-2-7-petals.inner-1.6.2-b02-c1-source-inner:b02-c1-source-inner-shape:source.children.0" data-ink-id="repeat-b02-c1-ring-inner-2-7-petals.inner-1.6.2-b02-c1-source-inner:b02-c1-source-inner-shape:source.children.0" data-ink-type="path" data-ink-topology="outer" transform="matrix(1 0 0 1 0 0)" opacity="1" fill="#e99aad" fill-rule="evenodd" stroke="#7a4255" stroke-width="1" stroke-linecap="round" stroke-linejoin="round" stroke-miterlimit="4" d="M0 0 C-15.2 -6.5600000000000005 -20 -26.24 -20 -39.36 C-20.8 -57.4 -15 -70.52 -8 -82 C-1 -70.52 20.8 -57.4 20 -39.36 C20 -26.24 15.2 -6.5600000000000005 0 0 Z"/></g><g id="repeat:b02-c1-ring-inner:2:8:petals.inner:1.6.2:b02-c1-source-inner" data-ink-id="repeat:b02-c1-ring-inner:2:8:petals.inner:1.6.2:b02-c1-source-inner" data-ink-type="group" transform="matrix(0.336383 -0.98006 0.962995 0.34026 402 499)"><path id="repeat-b02-c1-ring-inner-2-8-petals.inner-1.6.2-b02-c1-source-inner:b02-c1-source-inner-shape:source.children.0" data-ink-id="repeat-b02-c1-ring-inner-2-8-petals.inner-1.6.2-b02-c1-source-inner:b02-c1-source-inner-shape:source.children.0" data-ink-type="path" data-ink-topology="outer" transform="matrix(1 0 0 1 0 0)" opacity="1" fill="#e99aad" fill-rule="evenodd" stroke="#7a4255" stroke-width="1" stroke-linecap="round" stroke-linejoin="round" stroke-miterlimit="4" d="M0 0 C-15.2 -6.5600000000000005 -20 -26.24 -20 -39.36 C-20.8 -57.4 -15 -70.52 -8 -82 C-1 -70.52 20.8 -57.4 20 -39.36 C20 -26.24 15.2 -6.5600000000000005 0 0 Z"/></g><g id="repeat:b02-c1-ring-inner:2:9:petals.inner:1.6.2:b02-c1-source-inner" data-ink-id="repeat:b02-c1-ring-inner:2:9:petals.inner:1.6.2:b02-c1-source-inner" data-ink-type="group" transform="matrix(0.798971 -0.695904 0.681351 0.819298 393.25 500.5)"><path id="repeat-b02-c1-ring-inner-2-9-petals.inner-1.6.2-b02-c1-source-inner:b02-c1-source-inner-shape:source.children.0" data-ink-id="repeat-b02-c1-ring-inner-2-9-petals.inner-1.6.2-b02-c1-source-inner:b02-c1-source-inner-shape:source.children.0" data-ink-type="path" data-ink-topology="outer" transform="matrix(1 0 0 1 0 0)" opacity="1" fill="#e99aad" fill-rule="evenodd" stroke="#7a4255" stroke-width="1" stroke-linecap="round" stroke-linejoin="round" stroke-miterlimit="4" d="M0 0 C-15.2 -6.5600000000000005 -20 -26.24 -20 -39.36 C-20.8 -57.4 -15 -70.52 -8 -82 C-1 -70.52 20.8 -57.4 20 -39.36 C20 -26.24 15.2 -6.5600000000000005 0 0 Z"/></g></g><g id="b02:c1:manual-correction" data-ink-id="b02:c1:manual-correction" data-ink-type="group" transform="matrix(0.754814 0.3204 -0.359473 0.846864 397 500)"><path id="b02-c1-manual-correction:shape" data-ink-id="b02-c1-manual-correction:shape" data-ink-type="path" data-ink-topology="outer" transform="matrix(1 0 0 1 0 0)" opacity="1" fill="#d47b94" fill-rule="evenodd" stroke="#6a3448" stroke-width="1" stroke-linecap="round" stroke-linejoin="round" stroke-miterlimit="4" d="M0 0 C-19 -10.24 -25 -40.959999999999994 -25 -61.44 C-26 -89.6 31 -110.08 31 -128 C31 -110.08 26 -89.6 25 -61.44 C25 -40.959999999999994 19 -10.24 0 0 Z"/></g><g id="b02:c1:center" data-ink-id="b02:c1:center" data-ink-type="group" transform="matrix(1 0 0 1 397 500)"><path id="b02-c1-center:shape" data-ink-id="b02-c1-center:shape" data-ink-type="path" data-ink-topology="outer" transform="matrix(1 0 0 1 0 0)" opacity="1" fill="#d2a442" fill-rule="evenodd" stroke="#79501f" stroke-width="1.2" stroke-linecap="round" stroke-linejoin="round" stroke-miterlimit="4" d="M0 -31 C17.1208272438 -31 31 -17.1208272438 31 0 C31 17.1208272438 17.1208272438 31 0 31 C-17.1208272438 31 -31 17.1208272438 -31 0 C-31 -17.1208272438 -17.1208272438 -31 0 -31 Z"/></g></g></svg>
