<?xml version="1.0" encoding="UTF-8"?>
<svg xmlns="http://www.w3.org/2000/svg" viewBox="0 0 794 1123" width="794" height="794" data-ink-range="artboard"><rect width="100%" height="100%" fill="#ffffff"/><g id="layer:case-01-outline-fleurify:main" data-ink-layer="layer:case-01-outline-fleurify:main" opacity="1"><path id="fleurify-outline-8" data-ink-id="fleurify-outline-8" data-ink-type="path" data-ink-topology="outer" transform="matrix(1 0 0 1 0 0)" opacity="1" fill="#db7892" fill-rule="evenodd" stroke="#653243" stroke-width="3" stroke-linecap="round" stroke-linejoin="round" stroke-miterlimit="4" d="M397 170 C284 215 560 330 510 215 C397 170 510 445 560 330 C510 215 397 492 510 445 C560 330 284 445 397 492 C510 445 234 330 284 445 C397 492 284 215 234 330 C284 445 397 170 284 215 C234 330 510 215 397 170 Z"/></g></svg>
